v  0.0000 0.0000 1.0000
v  -0.0000 0.7818 0.6235
v  -0.6113 0.4875 0.6235
v  -0.7622 -0.1740 0.6235
v  -0.3392 -0.7044 0.6235
v  0.3392 -0.7044 0.6235
v  0.7622 -0.1740 0.6235
v  0.6113 0.4875 0.6235
v  -0.0000 0.9749 -0.2225
v  -0.7622 0.6079 -0.2225
v  -0.9505 -0.2169 -0.2225
v  -0.4230 -0.8784 -0.2225
v  0.4230 -0.8784 -0.2225
v  0.9505 -0.2169 -0.2225
v  0.7622 0.6079 -0.2225
v  0.0000 0.0000 -1.0000
# 16 vertices

vn 0.0000 0.0000 1.0000
vn -0.0000 0.8213 0.5705
vn -0.6421 0.5121 0.5705
vn -0.8007 -0.1828 0.5705
vn -0.3564 -0.7400 0.5705
vn 0.3564 -0.7400 0.5705
vn 0.8007 -0.1828 0.5705
vn 0.6421 0.5121 0.5705
vn -0.0000 0.9565 -0.2919
vn -0.7478 0.5963 -0.2919
vn -0.9325 -0.2128 -0.2919
vn -0.4150 -0.8617 -0.2919
vn 0.4150 -0.8617 -0.2919
vn 0.9325 -0.2128 -0.2919
vn 0.7478 0.5963 -0.2919
vn 0.0000 0.0000 -1.0000
# 16 vertex normals

vt 0.0000 1.0000 0.0000
vt 0.0000 0.7143 0.0000
vt 0.1429 0.7143 0.0000
vt 0.1429 1.0000 0.0000
vt 0.2857 0.7143 0.0000
vt 0.2857 1.0000 0.0000
vt 0.4286 0.7143 0.0000
vt 0.4286 1.0000 0.0000
vt 0.5714 0.7143 0.0000
vt 0.5714 1.0000 0.0000
vt 0.7143 0.7143 0.0000
vt 0.7143 1.0000 0.0000
vt 0.8571 0.7143 0.0000
vt 0.8571 1.0000 0.0000
vt 1.0000 0.7143 0.0000
vt 0.0000 0.4286 0.0000
vt 0.1429 0.4286 0.0000
vt 0.2857 0.4286 0.0000
vt 0.4286 0.4286 0.0000
vt 0.5714 0.4286 0.0000
vt 0.7143 0.4286 0.0000
vt 0.8571 0.4286 0.0000
vt 1.0000 0.4286 0.0000
vt 0.0000 0.1429 0.0000
vt 0.1429 0.1429 0.0000
vt 0.2857 0.1429 0.0000
vt 0.4286 0.1429 0.0000
vt 0.5714 0.1429 0.0000
vt 0.7143 0.1429 0.0000
vt 0.8571 0.1429 0.0000
# 30 texture coords

g Sphere001
s 1
f 1/1/1 2/2/2 3/3/3 
f 1/4/1 3/3/3 4/5/4 
f 1/6/1 4/5/4 5/7/5 
f 1/8/1 5/7/5 6/9/6 
f 1/10/1 6/9/6 7/11/7 
f 1/12/1 7/11/7 8/13/8 
f 1/14/1 8/13/8 2/15/2 
f 2/2/2 9/16/9 10/17/10 
f 2/2/2 10/17/10 3/3/3 
f 3/3/3 10/17/10 11/18/11 
f 3/3/3 11/18/11 4/5/4 
f 4/5/4 11/18/11 12/19/12 
f 4/5/4 12/19/12 5/7/5 
f 5/7/5 12/19/12 13/20/13 
f 5/7/5 13/20/13 6/9/6 
f 6/9/6 13/20/13 14/21/14 
f 6/9/6 14/21/14 7/11/7 
f 7/11/7 14/21/14 15/22/15 
f 7/11/7 15/22/15 8/13/8 
f 8/13/8 15/22/15 9/23/9 
f 8/13/8 9/23/9 2/15/2 
f 16/24/16 10/17/10 9/16/9 
f 16/25/16 11/18/11 10/17/10 
f 16/26/16 12/19/12 11/18/11 
f 16/27/16 13/20/13 12/19/12 
f 16/28/16 14/21/14 13/20/13 
f 16/29/16 15/22/15 14/21/14 
f 16/30/16 9/23/9 15/22/15 
# 28 faces

